<svg id="bold" enable-background="new 0 0 32 32" height="512" viewBox="0 0 32 32" width="512" xmlns="http://www.w3.org/2000/svg"><path d="m26 32h-20c-3.314 0-6-2.686-6-6v-20c0-3.314 2.686-6 6-6h20c3.314 0 6 2.686 6 6v20c0 3.314-2.686 6-6 6z" fill="#ffe6e2"/><g fill="#fd907e"><path d="m19.801 15-2.666 4h2.064l2.667-4z"/><path d="m15.968 15-2.667 4h2.231l2.667-4z"/><path d="m23.375 15.14-2.574 3.86h2.032c.644 0 1.167-.523 1.167-1.167v-1.667c0-.446-.255-.83-.625-1.026z"/><path d="m14.365 15h-2.365v3.548z"/></g><path d="m12.833 22.333h-.167v-7.667c0-.976-.844-1.76-1.841-1.658-.867.089-1.493.885-1.493 1.756v7.568h-.166c-.643.001-1.166.525-1.166 1.168v.333c0 .644.523 1.167 1.166 1.167h3.667c.643 0 1.167-.523 1.167-1.167v-.333c0-.643-.524-1.167-1.167-1.167z" fill="#fc573b"/></svg>